# xmcd
#
# Track frame offsets:
# 150
# 15590
# 32205
# 51862
# 68090
# 82767
# 100945
# 120105
# 135415
# 150202
# 169465
# 187175
# 200822
#
# Disc length: 2937 seconds
#
#
# Revision: 0
# Processed by: cddbd v1.5.1PL0 Copyright (c) Steve Scherf et al.
# Submitted via: FreeRIP 2.51 
#
DISCID=a20b770d
DTITLE=Desperado - Lonley Room
DYEAR=2000
DGENRE=Country
TTITLE0=Still In Love With You
TTITLE1=I Got A Love
TTITLE2=You Say You Will
TTITLE3=In Anothers Eyes
TTITLE4=Turn Me Loose
TTITLE5=It Should Have Been Me
TTITLE6=Desperado
TTITLE7=I Always Told You The Truth
TTITLE8=Lonley Room
TTITLE9=Losing Your Love
TTITLE10=One More Last Chance
TTITLE11=I'll Know When I Get There
TTITLE12=Rust
EXTD=
EXTT0=
EXTT1=
EXTT2=
EXTT3=
EXTT4=
EXTT5=
EXTT6=
EXTT7=
EXTT8=
EXTT9=
EXTT10=
EXTT11=
EXTT12=
PLAYORDER=
